<?xml version="1.0" encoding="UTF-8"?><svg id="Layer_1" xmlns="http://www.w3.org/2000/svg" viewBox="0 0 307.16 64.43"><defs><style>.cls-1{fill:#fff;}.cls-2{fill:#ed1c24;}</style></defs><path class="cls-2" d="M0,0h243.38c9.72,0,16.19.71,24.07,10.61,6.77,8.51,39.71,53.82,39.71,53.82H0V0Z"/><path class="cls-1" d="M116.27,47.91c.05-.03,2.78-.23,2.77-1.27,0-.28-.24-.52-.68-.52-.54.02-3.08.87-3.04,2.06,0,.11.03.2.06.29-.35.2-.71.33-1.03.3-.04-.05-.14-.14-.18-.2,0-.4,0-.85-.05-1.23-.04-.25,0-.56-.32-.77-.32-.06-.66.1-.83.21-.37.23-.78.53-1.09.78-.39.3-.89.7-1.17.7-.4-.02-.52-.62-.53-.74,0-.67,1.9-1.86,2.17-2.11.73-.67,1-1.14,1.25-1.64.11-.24.22-.73.22-.85,0-.15.05-.32-.26-.32-.14,0-.45.2-.55.31-1.28,1.42-2.41,2.89-3.57,4.36-1.24.67-2.11,1.05-3.36,1.07-.75,0-2.71-.3-2.74-1.91-.02-1.16,1.13-2.6,2.24-3.67h2.62c.12,0,1.3.1,1.44.1.17,0,.47.02.61-.16h-.02c-.06-.18-.12-.39-.23-.45-.7-.31-2.66-.28-3.58-.41.26-.26.5-.52.66-.72-.04,0-.13-.07-.45-.07-.27.19-.56.51-.88.83h-5.29c-.34,0-.72.79-.72.98,0,.22.22.22.38.2l4.78-.23c-1.45,1.44-2.9,2.87-2.87,4.31.03,1.77,2.14,2.24,3.18,2.24,1.17,0,2.51-.52,3.85-1.47-.04.14-.03.27-.03.41,0,.25.05.95.6.95.84.02,2.57-1.94,3.07-1.94.12,0,.22.07.22.2l.02,1.26c0,.22.23.75.73.75.41,0,1.22-.43,1.84-.82.36.46,1.14.6,1.62.6,1.03,0,2.06-.6,3.21-1.3v-.17c-.85.37-1.8.71-2.52.71-.45,0-1.35-.05-1.54-.63M117.74,46.58c.25,0,.35.12.35.29,0,.6-1.74.77-1.8.77.11-.55,1.02-1.06,1.44-1.06"/><path class="cls-1" d="M134.55,42.62c-2.88,0-6.59,2.32-9,4.62.02-.37.4-.93.61-1.42.09-.18.21-.5.33-.64.45-.48,1.34-.65,1.33-1.22,0-.11-.15-.89-.25-1.2-.04-.05-.18-.12-.21-.12-.62.98-2.04,2.16-3.03,2.16-.13,0-.26.01-.52-.01.18.37,1.08.86,1.41.86.1,0,.49-.12.7-.25l.03.07c-.36.81-.73,1.71-1.13,2.41-.08.12-3.29,3.41-3.29,4.11,0,.32.48.52.76.52,1.13,0,2.53-4.04,2.85-4.41,2.21-2.63,5.84-4.58,8.44-4.57.84,0,2.64.34,2.65,1.89.02.41-.14.86-.37,1.23-1.51,2.26-4.26,2.8-6.12,2.8-1.06,0-2.8-.15-3.66-1.24h-.19s-.03.13-.03.18c.67,1.06,2.56,1.42,3.97,1.42.36,0,1.58-.14,2.14-.21,1.71-.2,5.71-2.22,5.65-4.68-.03-1.7-1.89-2.28-3.09-2.28"/><path class="cls-1" d="M144.6,45.26c.26,0,.8-.1,1-.44-.38-.16-1.02-.6-1.15-.6-.06.02-.67.31-.68.58.01.27.61.46.84.46"/><path class="cls-1" d="M152.76,47.97s-.02,0-.02.01h0s.02-.01.02-.01Z"/><path class="cls-1" d="M152.7,48s.02-.01.03-.02v-.08c.42-.05,2.7-.3,2.69-1.26,0-.28-.23-.52-.68-.52-.55.02-3.07.87-3.05,2.06,0,.04.02.06.02.1-.27.15-.56.27-.91.27-.53,0-1.11-.29-1.12-1.05-.03-1.64,2.94-2.48,2.9-4.46,0-.02-.06-.46-.27-.46-.51.02-2.17,2.52-2.31,2.77-.33.58-.52,1.27-.93,1.78-.5.58-1.6,1.32-2.32,1.32-.14.02-.61.02-.61-.43-.02-.84,1.66-1.37,2.17-1.37.12,0,.28.06.41.06.14,0,.2-.07.23-.12,0-.06-.06-.19-.06-.24-.19.01-.5-.05-.62-.05-.53,0-3.32.59-3.43,1.98-.34.16-.68.28-1.05.28-.21,0-.78-.08-.8-.62-.01-.43.59-.99,1.08-1.4v-.17c-.07,0-.13-.06-.26-.06-.28,0-1.81,1.42-1.87,1.5-.05.11-.07.25-.09.37-.42.22-.85.39-1.24.39-.03,0-.88,0-.89-.46,0-.4.76-.39.76-.85,0-.33-.97-.58-1.12-.75.18-.18.31-.3.31-.44l.02-.16c-.06-.05-.08-.11-.23-.11-.35,0-1.24.86-1.33,1.03,0,.12.11.22.09.25-.17.16-.4.36-.52.49.06.01.14.08.14.08.21-.11.59-.42.73-.42.03,0,.9.3.99.54-.12.18-1.02.65-1.02.87.02.41,1,.69,1.23.69.54,0,1.38-.37,2.07-.79.07.52.44.79,1.11.79.57,0,1.29-.33,1.92-.68.13.42.56.68,1.09.68.89,0,1.87-.89,2.86-1.7.06.05.02.07.02.07-.32,1.17.38,1.63,1.12,1.63.55,0,1.2-.33,1.82-.72.31.55,1.17.72,1.68.72,1.03,0,2.06-.6,3.21-1.3v-.17c-.84.37-1.79.71-2.53.71-.41,0-1.23-.05-1.47-.54M154.13,46.58c.25,0,.35.12.35.29.02.6-1.74.77-1.8.77.11-.55,1.03-1.06,1.45-1.06"/><path class="cls-1" d="M169.59,42.57c-.06.02-.41.17-.53.34-.55.93-2.26,3.88-2.38,3.88-.14,0-.62-.16-.76-.16-.08,0-.48.17-.75.31-.05,0-.1,0-.13,0-.75,0-1.38-.4-2.02-.67-.21.28-.39.65-.54.96.47.1.91.2,1.35.25-.44.85-1.2,1.05-1.68,1.05-.22,0-1.34-.07-1.36-.8.02-.86,1.4-1.08,1.68-1.17.06-.05.11-.19.11-.19h-.43c-.13,0-.17.05-.23.09-.86.18-2.3.94-2.28,1.92.02.74,1.02.92,1.46.92,1.02-.02,2.67-.57,3.04-1.86.19-.03.49-.07.79-.14.3.08.65.13.94.14.11.11.19.19.19.3,0,.09-.62,1.2-.8,1.62-.3.68-.43,1.85-.43,2.34,0,.11-.06.73.35.73.66,0,1.33-2.74,1.33-2.86,0-.45-.1-1.17-.06-1.38.06-.28.37-.64.51-.67.8-.2,2.16.03,2.72-.58-.68,0-1.26.04-1.4.04-.2,0-.69.04-.81-.12,1.5-1.6,2.4-2.61,2.38-3.92,0-.09.02-.4-.27-.4"/><path class="cls-1" d="M199.83,45.26c.26,0,.8-.1,1-.44-.38-.16-1.01-.6-1.15-.6-.06.02-.67.31-.68.58,0,.27.61.46.84.46"/><path class="cls-1" d="M211.61,47.77c-.67.23-1.04.57-1.72.62-.31-.35.06-.86-.66-1.22-.06-.05-.09-.08-.09-.08-.04-.21.27-.94-.29-.94-.43,0-.31.28-.54.52-.23-.07-.58-.11-.7-.11-.57-.02-2.58.46-3.2,1.42-.41.18-.92.4-1.27.5-.14.03-.39.07-.51.07-.3,0-1.15-.12-1.15-.8-.03-.77,1.1-.94,1.51-.94.12,0,.59.04.72.04s.32-.01.48-.11l-.02-.29c-.16-.1-.28-.11-.42-.11-.57,0-3.35.57-3.46,1.83-.4.21-.81.38-1.26.38-.22,0-.78-.08-.8-.62,0-.43.59-.99,1.08-1.4v-.17c-.06,0-.12-.06-.25-.06-.29,0-1.82,1.42-1.87,1.49-.03.09-.06.2-.07.31-.43.25-.9.45-1.32.45,0,0-.84,0-.85-.46,0-.4.74-.38.74-.85,0-.33-.94-.58-1.08-.75.17-.18.3-.3.3-.44v-.16s-.06-.11-.21-.11c-.34,0-1.19.86-1.28,1.03,0,.07.02.12.05.17-.59,0-1.05.04-1.17.04-.19,0-.68.04-.8-.12,1.49-1.59,2.4-2.61,2.37-3.92,0-.09.04-.39-.25-.39-.07.02-.42.17-.54.34-.55.93-2.28,3.88-2.38,3.88-.13,0-.62-.16-.76-.16-.11,0-.9.36-.98.45-.05.02-.11.16-.1.21h0c-.49.35-.95.99-1.39.99-.95,0-1.33-6.42-3.37-6.42-1.33,0-6.82,3.71-6.86,3.71-.12,0-.7-.32-.82-.32-.16,0-.84.43-1.07.62l.03.2c.21.09.47.18.63.29-.87.63-3.94,2.58-3.94,2.94,0,.17.27.33.52.33,1.3,0,4.34-3.03,4.38-3.03.14,0,.81.14,1.11.14.63.04,2.03.07,2.15.07,1.34,0,3.15-.15,4.07-.74.05-.04.16-.17.15-.23l.02-.11h-.18c-.14-.01-.57.11-.75.12-.68.08-1.91.07-2.03.07-1.05.02-1.85.06-3.48-.18,1.23-.71,3.28-2.69,5.02-2.69.27,0,.73.03,1.03.44.61.8.63,1.63.99,2.72.16.46.27,1.03.39,1.35.16.37.26,1.6,1.12,1.6s1.99-1.03,2.56-1.79c.24.05.5.08.72.09.1.11.18.19.18.3.01.09-.6,1.2-.8,1.62-.3.68-.43,1.85-.42,2.34,0,.11-.06.73.35.73.65,0,1.33-2.73,1.33-2.86,0-.45-.11-1.17-.05-1.38.05-.28.36-.64.49-.67.67-.17,1.73-.05,2.38-.35-.14.12-.28.25-.35.35.06.01.14.08.14.08.2-.11.57-.42.71-.42.04,0,.88.3.95.54-.11.17-.98.65-.98.87,0,.41.96.69,1.17.69.55,0,1.43-.41,2.1-.85.03.56.41.85,1.11.85.64,0,1.46-.4,2.12-.8.19.62,1.02.8,1.41.8.66,0,1.67-.4,2.48-.8,0,.03-.01.06-.01.09,0,.42.41.7.9.7,1.06,0,3.23-1.75,3.49-1.75.12.01.12.04.18.09v.13c-.27.41-.7.64-.69,1.02.02.31.38.45.75.45.7.02,2.77-1.04,2.89-1.45v-.02l-.12-.02ZM208.34,47.17c0,.63-1.95,1.3-2.14,1.3-.23,0-.51-.19-.53-.41-.02-.81,1.57-1.25,2.08-1.25.32,0,.57.06.58.36h0Z"/><path class="cls-1" d="M60.9,17.53c-5.58-6.71-16.45-7.08-24.29-.85-7.83,6.23-9.66,16.71-4.08,23.41,5.58,6.7,16.46,7.08,24.29.85,7.83-6.23,9.66-16.71,4.07-23.41M55.42,39.13c-7.33,5.83-16.94,6.15-21.45.74-4.52-5.43-2.24-14.54,5.09-20.37,7.33-5.83,16.92-6.15,21.45-.73,4.51,5.42,2.24,14.54-5.09,20.37"/><path class="cls-1" d="M57.49,24.55c1.88-2.55.85-8.45-.34-6.66-1.02,1.55-6.2,4.87-10.77,7.55,0,0,1.12-2.84,2.07-5.13.96-2.29-3.34-1.33-5.83-.1-.23.12-2.22,1.32-2.38,2.07,1.04-.18,1.64-.25,1.52.02-.07.18-.15.36-.24.56-.76,1.76-1.79,4.15-2.82,6.52-2.39,6.47-1.19,9.4-1.19,9.4l6.38.26s-1.6-.66-.92-4.22c.66-3.51,1.65-4.03,1.86-4.11.37,1.5,2.7,7.56,8.02,11.09,6.43,4.27,10.87,2.14,12.59.43,1.72-1.71,1.72-5.12,1.72-5.12,0,0-4.89,3.84-9.87.52-3.43-2.28-8.2-6.37-10.02-7.92.31-.13,7.01-.83,10.23-5.16"/><polygon class="cls-1" points="83.66 22.8 80.73 22.8 75.6 29.22 75.55 29.22 76.92 22.8 73.2 22.8 70.43 36.31 74.15 36.31 75.44 29.9 75.48 29.9 79.02 36.31 83.25 36.31 78.86 28.79 83.66 22.8"/><path class="cls-1" d="M86.78,32.87c2.64.08,6.56-1.72,6.56-4.65,0-1.57-1.53-2.26-2.84-2.26-4.82,0-7.45,4.27-7.45,7.2,0,2.35,2.27,3.38,4.4,3.38,1.84,0,3.64-.49,5.46-1.12l.54-2.48c-1.26.65-3.39,1.47-4.78,1.47-1.03,0-1.87-.45-1.89-1.53M89.21,28.2c.48,0,.77.29.77.77,0,1.33-1.19,1.94-2.95,1.89.16-.97.97-2.65,2.18-2.65"/><path class="cls-1" d="M105.96,28.07c0-1.18-.77-2.11-2.08-2.11-2.14,0-4.11,2.79-4.88,4.5h-.23l1.1-4.28h-3.68l-2.08,10.13h3.72l.65-3.16c.37-.74,2.65-4,3.31-4,.18,0,.22.19.22.3,0,.15-.08.38-.1.51l-1.29,6.35h3.7l1.41-6.78c.1-.48.23-.97.23-1.46"/><polygon class="cls-1" points="116.06 26.18 111.92 32.11 110.76 26.18 106.96 26.18 108.95 36.31 105.4 39.91 109.25 39.91 118.89 26.18 116.06 26.18"/><path class="cls-1" d="M123.8,26.01c-3.65,0-6.96,4.58-6.96,7.85,0,1.35.88,2.67,2.38,2.67,2.15,0,4.1-2.79,4.88-4.51h.23l-1.09,4.28h3.69l2.08-10.12h-3.48c-.27,0-.87-.17-1.74-.17M124.64,29.4c-.83,1.16-2.64,4.11-3.66,4.11-.33,0-.43-.32-.43-.58,0-.96.87-4.89,3.11-4.89.42,0,.85.15,1.19.33l-.21,1.03Z"/><path class="cls-1" d="M139.58,22.8l-7.51,13.5h2.65l1.86-3.38h5.15l.68,3.38h3.55l-2.69-13.5h-3.69ZM137.78,30.8l2.58-4.71h.03l.91,4.71h-3.53Z"/><polygon class="cls-1" points="148.92 26.18 146.82 36.31 150.56 36.31 152.64 26.18 148.92 26.18"/><polygon class="cls-1" points="153.39 22.74 149.67 22.74 149.23 24.74 152.95 24.74 153.39 22.74"/><path class="cls-1" d="M157.3,30.46h-.23l1.09-4.28h-3.68l-2.08,10.12h3.73l.65-3.15c.73-1.18,2.35-4.1,4.23-4.1.28,0,.56.12.81.24l1.32-3.14c-.19-.1-.53-.2-.95-.2-2.14,0-4.1,2.79-4.88,4.5"/><polygon class="cls-1" points="177.49 26.18 174.19 32.63 174.16 32.63 173.87 26.18 170.75 26.18 167.49 32.61 167.44 32.61 167.21 26.18 163.95 26.18 164.35 36.31 167.91 36.31 171.02 30.21 171.06 30.21 171.32 36.31 174.87 36.31 180.1 26.18 177.49 26.18"/><path class="cls-1" d="M187.17,26.18c-.28,0-.88-.17-1.75-.17-3.63,0-6.95,4.58-6.95,7.85,0,1.35.88,2.67,2.39,2.67,2.14,0,4.11-2.79,4.88-4.51h.24l-1.11,4.28h3.71l2.08-10.12h-3.48ZM186.27,29.4c-.82,1.16-2.64,4.11-3.67,4.11-.33,0-.42-.32-.42-.58,0-.95.87-4.89,3.11-4.89.42,0,.84.15,1.19.34l-.21,1.03Z"/><polygon class="cls-1" points="201.02 26.18 196.88 32.11 195.72 26.18 191.91 26.18 193.91 36.31 190.36 39.91 194.2 39.91 203.84 26.18 201.02 26.18"/><path class="cls-1" d="M208.95,27.98c.8,0,1.58.21,2.33.47l.44-2.19c-.9-.11-1.95-.3-2.92-.3-3.96,0-4.82,1.93-4.82,3.14,0,2.21,2.98,3.07,2.98,4.45,0,.66-.65.97-1.16.97-1.01,0-2.4-.52-3.34-.92l-.48,2.37c1.29.32,2.51.56,3.81.56,3.96,0,4.89-2.02,4.89-3.37,0-2.2-3.22-3.06-3.22-4.26,0-.75.84-.93,1.46-.93"/><path class="cls-1" d="M245.79,36.9c-.17-3.34-1.71-6.29-4.07-8.35h0c1.95,2.02,3.2,4.7,3.36,7.69.33,6.6-4.87,12.22-11.62,12.53-3.16.16-6.11-.89-8.38-2.73v.02c2.33,2.23,5.58,3.55,9.1,3.38,6.74-.32,11.94-5.93,11.61-12.53"/><path class="cls-1" d="M220.82,40.72c-.23.09-.39.25-.46.5-.07.23-.06.46.03.99l.04.21c.09.55.04.75-.21.84-.31.12-.59-.08-.76-.54-.19-.5-.1-.81.3-1.02l-.15-.4c-.59.24-.76.79-.47,1.55.27.69.76,1,1.28.81.23-.09.38-.24.44-.46.04-.18.03-.32-.03-.73l-.03-.2-.03-.24c-.09-.55-.02-.8.25-.89.34-.13.64.09.84.59.23.6.11,1.02-.36,1.2l.16.41c.66-.25.85-.87.53-1.7-.29-.77-.8-1.11-1.36-.91"/><polygon class="cls-1" points="219.49 38.25 218.25 38.25 218.25 38.7 221.4 38.7 221.4 38.25 220.3 38.25 219.8 37.69 221.39 36.45 221.4 35.89 219.51 37.38 218.25 35.94 218.25 36.53 219.61 38.03 219.72 38.15 219.82 38.26 219.66 38.26 219.49 38.25"/><path class="cls-1" d="M222.06,33.48l.16-.41-1.21-.45-1.26-1.83-.18.48.81,1.12c.11.16.13.19.23.31-.12.02-.16.03-.23.05l-.17.05-1.36.34-.2.51,2.2-.6,1.21.44Z"/><polygon class="cls-1" points="222.09 28.36 224.05 29.99 224.54 29.43 222.58 27.79 223.27 27 222.82 26.64 220.97 28.76 221.41 29.14 222.09 28.36"/><polygon class="cls-1" points="228.86 26.35 228.57 25.85 226.94 26.75 226.56 26.08 228.04 25.28 227.78 24.82 226.3 25.63 225.97 25.05 227.58 24.17 227.3 23.67 225.03 24.9 226.56 27.61 228.86 26.35"/><path class="cls-1" d="M231.16,25.04l1.27-.18.39.68.83-.04-1.79-2.99-.78.1-.9,3.35.78-.18.2-.75ZM231.41,23.94c.08-.33.12-.48.15-.7.1.22.16.35.32.64l.31.52-.92.13.14-.59Z"/><path class="cls-1" d="M236.11,24.72c.14-.48.18-.66.28-1.06l.09-.37c0,.17,0,.3,0,.37,0,.11.01.25.02.45,0,.15,0,.25.02.33l.15,1.47.57.17.92-1.22c.06-.07.13-.17.2-.28.18-.24.25-.36.45-.66l-.08.21c-.05.14-.09.26-.13.39-.04.11-.08.26-.14.45-.06.18-.1.33-.13.43l-.27.92.66.26.88-3-1-.36-.86,1.15c-.07.11-.15.22-.25.36-.14.21-.19.29-.31.51.02-.4.02-.68-.01-1.02l-.12-1.43-1.06-.23-.85,3.01.69.12.29-.99Z"/><path class="cls-1" d="M228.59,37.22c.68-.44,1.49-1.16,2.13-1.73.48.12,1.03.27,1.62.46l.54.17c-.72.67-1.46,1.37-2.15,1.93l-.06.05c-.96.79-1.64,1.36-2.62,1.55-.7.13-1.18-.02-1.33-.12-.02,0-.04.03-.04.03.56.47,1.09.74,2.01.68.87-.05,1.9-.58,2.96-1.51l1.43-1.31,1.01-.94s1.97.61,1.97.61c.02,0,.04,0,.04,0-.02,0-1.25,1.14-1.25,1.14l-1.08,1.01c-1.1,1-1.7,1.52-2.34,1.95-1.06.7-1.96,1.06-2.74,1.09-.41.02-.99-.02-1.48-.31-.02,0-.05.02-.05.02.52.46,1.16,1.01,2.29,1,1.27-.01,2.41-.59,4.2-2.12.81-.7,1.62-1.49,2.34-2.19l1.33-1.27c.85.2,1.61.3,2.46.3,1.23,0,2.3-.56,2.33-1.22.02-.49-.38-.76-.63-.92-.2-.13-.75-.44-1.5-.46-.93-.02-1.9.36-2.9,1.13l-.66.55s-.24-.07-.24-.07l-1.81-.54c.55-.47,1.01-.88,1.43-1.23,1.01-.84,2.11-1.18,2.76-1.2.47-.02,1.28.04,1.61.28.01,0,.03-.03.03-.03-.87-.77-1.64-.88-2.28-.89-.63-.01-1.64.16-2.89,1.07-.51.37-1.18,1-1.88,1.66l-.91-.3-.22-.07-.96-.3s.56-.5.56-.5c.66-.61,1.29-1.18,1.78-1.57,1.77-1.4,2.87-1.56,3.63-1.55.84,0,1.5.19,1.96.54.02,0,.04-.03.04-.03-.96-.89-1.66-1.18-2.87-1.21-1.06-.03-2.35.52-3.61,1.56-.39.32-1.17,1.01-1.91,1.69l-.85.76c-.67-.13-1.34-.2-2.03-.22-1.53-.04-2.94.35-3.6.98-.25.24-.38.5-.38.78,0,.73.84,1.12,1.1,1.22,1.35.52,2.5.4,3.71-.39M238.4,36.55c.92-.59,1.69-.89,2.16-.86.27.01.61.1.6.44,0,.35-.35.63-1.01.84-.59.19-1.47.23-2.43.1.27-.23.5-.41.69-.52M225.59,37.37c-.56-.05-.83-.28-.82-.7,0-.06.06-1.41,3.23-1.5.36,0,.76,0,1.38.07-.02,0-.37.29-.37.29l-.2.17c-.78.67-2.08,1.77-3.22,1.67"/></svg>